<?xml version="1.0" encoding="UTF-8" standalone="no"?><!DOCTYPE svg PUBLIC "-//W3C//DTD SVG 1.1//EN" "http://www.w3.org/Graphics/SVG/1.1/DTD/svg11.dtd"><svg width="100%" height="100%" viewBox="0 0 923 923" version="1.1" xmlns="http://www.w3.org/2000/svg" xmlns:xlink="http://www.w3.org/1999/xlink" xml:space="preserve" xmlns:serif="http://www.serif.com/" style="fill-rule:evenodd;clip-rule:evenodd;stroke-linecap:round;stroke-linejoin:round;stroke-miterlimit:1.5;"><circle cx="461.296" cy="461.296" r="461.296" style="fill:none;"/><clipPath id="_clip1"><circle cx="461.296" cy="461.296" r="461.296"/></clipPath><g clip-path="url(#_clip1)"><g><g><path d="M417.807,141.833c123.779,71.464 166.253,229.977 94.788,353.757c-71.464,123.779 -229.977,166.253 -353.757,94.789c-123.779,-71.465 -166.253,-229.978 -94.789,-353.758c71.465,-123.779 229.978,-166.253 353.758,-94.788Z" style="fill:none;stroke:#767676;stroke-width:4px;"/><path d="M504.624,142.433c123.569,-71.343 281.814,-28.942 353.157,94.628c71.343,123.57 28.941,281.814 -94.629,353.157c-123.569,71.343 -281.813,28.941 -353.156,-94.628c-71.343,-123.57 -28.942,-281.814 94.628,-353.157Z" style="fill:none;stroke:#767676;stroke-width:4px;"/><circle cx="461.296" cy="664.512" r="255.882" style="fill:none;stroke:#767676;stroke-width:4px;"/><circle cx="461.296" cy="464.096" r="291.999" style="fill:none;stroke:#767676;stroke-width:4px;"/><path d="M645.154,237.377l104.856,184.136l-209.712,0l104.856,-184.136Zm-0,3.031c-0,0 90.42,158.786 102.276,179.605c-0,0 -204.552,0 -204.552,0c11.856,-20.819 102.276,-179.605 102.276,-179.605l-0,0Z" style="fill:#767676;"/><path d="M461.696,559.864l106.085,176.484l-212.17,0l106.085,-176.484Zm0,2.912c11.189,18.614 91.916,152.912 103.433,172.072c0,0 -182.602,0 -206.866,0c-0,0 103.433,-172.072 103.433,-172.072l0,-0Z" style="fill:#767676;"/><path d="M276.867,236.377l105.33,185.443l-210.659,-0l105.329,-185.443Zm0,3.037c0,0 90.883,160.009 102.753,180.906c-22.356,-0 -183.15,-0 -205.505,-0c11.869,-20.897 102.752,-180.906 102.752,-180.906l0,0Z" style="fill:#767676;"/><path d="M859.088,237.024l-397.792,683.37l-397.508,-685.787l795.3,2.417Zm-2.604,1.492c-24.023,41.27 -371.24,637.756 -395.186,678.891c-23.899,-41.231 -370.867,-639.826 -394.902,-681.292c-0,0 790.088,2.401 790.088,2.401l0,0Z" style="fill:#767676;"/><path d="M381.713,420.968l-316.594,-185.773" style="fill:none;stroke:#767676;stroke-width:1.5px;"/><path d="M223.556,330.237l-14.827,283.356l252.349,122.755l253.342,-123.593l-14.865,-282.518l-237.995,-156.681l-238.004,156.681Zm1.458,0.835c12.997,-8.555 221.761,-145.987 236.546,-155.721c0,0 223.09,146.869 236.537,155.722c-0,-0 14.773,280.769 14.773,280.769c-15.866,7.74 -238.135,116.175 -251.793,122.838c-0,-0 -234.474,-114.06 -250.798,-122.001c-0,0 14.735,-281.607 14.735,-281.607l0,0Z" style="fill:#767676;"/><path d="M214.681,735.878l246.615,184.516l245.434,-183.336l116.198,-194.304l36.307,-305.312l-282.712,-123.253l-227.959,0l-284.477,120.42l35.906,309.325l114.688,191.944Zm1.136,-1.023c-4.546,-7.608 -109.633,-183.484 -114.371,-191.414c0,0 -35.739,-307.889 -35.739,-307.889c-0,0 283.162,-119.863 283.162,-119.863c-0,0 227.341,0 227.341,0c0,0 281.404,122.683 281.404,122.683c0,0 -34.829,292.885 -36.137,303.887c-0,0 -115.882,193.775 -115.882,193.775c0,-0 -244.299,182.487 -244.299,182.487l-245.479,-183.666Z" style="fill:#767676;"/><path d="M539.957,420.968l317.97,-183.407" style="fill:none;stroke:#767676;stroke-width:1.5px;"/><path d="M461.078,561.864l0.218,358.53" style="fill:none;stroke:#767676;stroke-width:1.5px;"/></g><g><path d="M416.138,365.182l27.52,-104.516l34.399,-0l27.52,104.516l-20.341,-0l-5.683,-22.994l-37.391,0l-5.683,22.994l-20.341,-0Zm30.66,-41.209l28.118,-0l-12.713,-50.915l-2.692,0l-12.713,50.915Z" style="fill:none;fill-rule:nonzero;stroke:#bababa;stroke-width:2px;stroke-linecap:butt;stroke-miterlimit:2;"/><path d="M396.105,548.888l-90.514,52.258l-9.871,-17.097l74.997,-43.3l-23.93,-41.448l15.516,-8.959l33.802,58.546Z" style="fill:none;fill-rule:nonzero;stroke:#bababa;stroke-width:2px;stroke-linecap:butt;stroke-miterlimit:2;"/><path d="M568.272,484.995l90.514,52.258l-9.871,17.097l-74.997,-43.299l-23.93,41.448l-15.517,-8.959l33.801,-58.545Z" style="fill:none;fill-rule:nonzero;stroke:#bababa;stroke-width:2px;stroke-linecap:butt;stroke-miterlimit:2;"/></g></g></g></svg>