<?xml version="1.0" encoding="UTF-8" standalone="no"?><!DOCTYPE svg PUBLIC "-//W3C//DTD SVG 1.1//EN" "http://www.w3.org/Graphics/SVG/1.1/DTD/svg11.dtd"><svg width="100%" height="100%" viewBox="0 0 1004 396" version="1.1" xmlns="http://www.w3.org/2000/svg" xmlns:xlink="http://www.w3.org/1999/xlink" xml:space="preserve" xmlns:serif="http://www.serif.com/" style="fill-rule:evenodd;clip-rule:evenodd;stroke-linejoin:round;stroke-miterlimit:2;"><g><path d="M501.57,-0c276.825,-0 501.571,88.674 501.571,197.894c-0,109.221 -224.746,197.895 -501.571,197.895c-276.824,-0 -501.57,-88.674 -501.57,-197.895c0,-109.22 224.746,-197.894 501.57,-197.894Zm-307.463,302.726c-14.617,0 -27.695,-2.592 -39.235,-7.776c-11.539,-5.184 -20.627,-13.008 -27.262,-23.472c-6.636,-10.464 -9.953,-23.568 -9.953,-39.312l-0,-6.048l23.945,0l-0,6.048c-0,16.896 4.856,29.376 14.568,37.44c9.713,8.064 22.358,12.096 37.937,12.096c15.771,0 27.791,-3.552 36.061,-10.656c8.27,-7.104 12.405,-16.032 12.405,-26.784c0,-7.488 -1.875,-13.44 -5.625,-17.856c-3.751,-4.416 -8.991,-8.016 -15.723,-10.8c-6.731,-2.784 -14.617,-5.232 -23.656,-7.344l-15.002,-3.744c-11.924,-2.88 -22.406,-6.528 -31.445,-10.944c-9.04,-4.416 -16.06,-10.272 -21.06,-17.568c-5.001,-7.296 -7.501,-16.608 -7.501,-27.936c0,-11.328 2.837,-21.12 8.511,-29.376c5.673,-8.256 13.655,-14.592 23.944,-19.008c10.29,-4.416 22.166,-6.624 35.629,-6.624c13.655,0 25.868,2.304 36.638,6.912c10.771,4.608 19.329,11.568 25.676,20.88c6.347,9.312 9.52,20.784 9.52,34.416l0,12.096l-23.944,0l-0,-12.096c-0,-14.592 -4.52,-25.104 -13.56,-31.536c-9.039,-6.432 -20.482,-9.648 -34.33,-9.648c-13.271,0 -23.945,2.928 -32.022,8.784c-8.078,5.856 -12.117,14.16 -12.117,24.912c-0,10.752 3.75,18.528 11.251,23.328c7.501,4.8 17.983,8.832 31.446,12.096l15.001,3.744c11.54,2.688 22.022,6.192 31.446,10.512c9.424,4.32 16.924,10.128 22.502,17.424c5.577,7.296 8.366,16.896 8.366,28.8c0,11.904 -2.981,22.272 -8.943,31.104c-5.962,8.832 -14.376,15.696 -25.243,20.592c-10.866,4.896 -23.608,7.344 -38.225,7.344Zm657.76,0c-5.578,0 -10.242,-1.824 -13.992,-5.472c-3.751,-3.648 -5.626,-8.352 -5.626,-14.112c0,-5.76 1.875,-10.464 5.626,-14.112c3.75,-3.648 8.414,-5.472 13.992,-5.472c5.769,0 10.481,1.824 14.136,5.472c3.654,3.648 5.481,8.352 5.481,14.112c-0,5.76 -1.827,10.464 -5.481,14.112c-3.655,3.648 -8.367,5.472 -14.136,5.472Zm-485.531,0c-24.041,0 -43.225,-6.96 -57.554,-20.88c-14.328,-13.92 -21.492,-34.224 -21.492,-60.912l-0,-46.08c-0,-26.688 7.164,-46.992 21.492,-60.912c14.329,-13.92 33.513,-20.88 57.554,-20.88c24.233,0 43.514,6.96 57.843,20.88c14.328,13.92 21.492,34.224 21.492,60.912l0,46.08c0,26.688 -7.164,46.992 -21.492,60.912c-14.329,13.92 -33.61,20.88 -57.843,20.88Zm182.326,0c-24.04,0 -43.225,-6.96 -57.554,-20.88c-14.328,-13.92 -21.492,-34.224 -21.492,-60.912l-0,-46.08c-0,-26.688 7.164,-46.992 21.492,-60.912c14.329,-13.92 33.514,-20.88 57.554,-20.88c24.234,0 43.515,6.96 57.843,20.88c14.328,13.92 21.493,34.224 21.493,60.912l-0,46.08c-0,26.688 -7.165,46.992 -21.493,60.912c-14.328,13.92 -33.609,20.88 -57.843,20.88Zm109.05,-4.032l0,-201.6l47.024,0l70.392,186.336l3.75,0l0,-186.336l23.945,0l0,201.6l-47.024,0l-70.103,-186.624l-4.039,0l-0,186.624l-23.945,0Zm-291.376,-17.568c17.502,0 31.061,-5.232 40.677,-15.696c9.617,-10.464 14.425,-25.008 14.425,-43.632l-0,-47.808c-0,-18.624 -4.808,-33.168 -14.425,-43.632c-9.616,-10.464 -23.175,-15.696 -40.677,-15.696c-17.309,0 -30.772,5.232 -40.389,15.696c-9.616,10.464 -14.424,25.008 -14.424,43.632l-0,47.808c-0,18.624 4.808,33.168 14.424,43.632c9.617,10.464 23.08,15.696 40.389,15.696Zm182.326,0c17.502,0 31.061,-5.232 40.678,-15.696c9.616,-10.464 14.424,-25.008 14.424,-43.632l0,-47.808c0,-18.624 -4.808,-33.168 -14.424,-43.632c-9.617,-10.464 -23.176,-15.696 -40.678,-15.696c-17.309,0 -30.772,5.232 -40.388,15.696c-9.617,10.464 -14.425,25.008 -14.425,43.632l0,47.808c0,18.624 4.808,33.168 14.425,43.632c9.616,10.464 23.079,15.696 40.388,15.696Zm291.665,-36.288l-0,-147.744l23.368,0l-0,147.744l-23.368,0Z" style="fill:url(#_Linear1);"/></g><defs><linearGradient id="_Linear1" x1="0" y1="0" x2="1" y2="0" gradientUnits="userSpaceOnUse" gradientTransform="matrix(501.57,0,0,197.894,1005.45,-281.58)"><stop offset="0" style="stop-color:#37ffbb;stop-opacity:1"/><stop offset="0.45" style="stop-color:#b761d1;stop-opacity:1"/><stop offset="1" style="stop-color:#ffde00;stop-opacity:1"/></linearGradient></defs></svg>