<?xml version="1.0" standalone="no"?>
<!DOCTYPE svg PUBLIC "-//W3C//DTD SVG 20010904//EN"
 "http://www.w3.org/TR/2001/REC-SVG-20010904/DTD/svg10.dtd">
<svg version="1.0" xmlns="http://www.w3.org/2000/svg"
 width="700.000000pt" height="700.000000pt" viewBox="0 0 700.000000 700.000000"
 preserveAspectRatio="xMidYMid meet">
<metadata>
Created by potrace 1.14, written by Peter Selinger 2001-2017
</metadata>
<g transform="translate(0.000000,700.000000) scale(0.100000,-0.100000)"
fill="#000000" stroke="none">
<path d="M3490 6765 c0 -8 4 -15 10 -15 5 0 7 7 4 15 -4 8 -8 15 -10 15 -2 0
-4 -7 -4 -15z"/>
<path d="M3489 6644 c-1 -54 -3 -108 -4 -119 -1 -11 -5 -78 -9 -150 -4 -71 -9
-150 -11 -175 -13 -144 -16 -185 -26 -280 -10 -113 -17 -175 -24 -230 -3 -19
-7 -61 -11 -93 -3 -32 -7 -68 -10 -80 -2 -12 -6 -42 -9 -67 -3 -25 -7 -56 -10
-70 -2 -14 -9 -59 -14 -100 -6 -41 -13 -86 -16 -100 -3 -14 -8 -45 -11 -70 -3
-25 -7 -53 -10 -62 -3 -10 -7 -30 -10 -45 -2 -16 -7 -39 -9 -53 -3 -14 -8 -38
-11 -55 -4 -24 -26 -127 -39 -185 -44 -198 -113 -409 -174 -535 -75 -154 -145
-215 -336 -293 -86 -35 -329 -111 -405 -126 -14 -3 -113 -23 -220 -45 -205
-42 -228 -46 -300 -56 -25 -3 -56 -8 -70 -10 -53 -11 -67 -13 -121 -19 -31 -4
-65 -8 -75 -10 -11 -2 -46 -7 -79 -11 -32 -4 -66 -8 -75 -10 -8 -1 -46 -6 -83
-10 -37 -3 -76 -8 -86 -10 -10 -2 -54 -7 -97 -11 -43 -3 -92 -8 -109 -10 -29
-2 -166 -14 -235 -19 -19 -2 -91 -6 -160 -10 -69 -5 -141 -9 -160 -11 -19 -1
-77 -3 -127 -3 -100 -1 -131 -16 -35 -17 62 -1 322 -13 387 -19 22 -2 83 -6
135 -10 52 -3 109 -8 125 -10 17 -2 62 -7 100 -10 39 -3 84 -7 100 -10 17 -2
59 -7 95 -10 36 -3 76 -7 90 -9 14 -2 52 -7 85 -11 32 -4 68 -9 78 -11 10 -2
46 -6 80 -9 34 -4 64 -8 67 -10 3 -2 32 -6 64 -10 33 -3 62 -8 65 -10 3 -1 30
-6 60 -10 30 -4 63 -9 75 -11 12 -2 35 -7 51 -10 451 -81 795 -186 951 -289
149 -99 238 -307 364 -855 12 -54 17 -77 30 -150 35 -206 51 -300 55 -335 3
-22 7 -51 10 -65 5 -26 11 -76 20 -147 3 -24 7 -61 10 -83 11 -86 14 -117 20
-180 3 -36 8 -76 10 -90 2 -14 7 -56 10 -95 3 -38 7 -95 10 -125 11 -109 14
-157 21 -280 4 -69 8 -141 10 -160 1 -19 3 -73 3 -119 1 -46 4 -82 7 -78 7 6
10 51 19 247 4 74 8 153 10 175 2 22 6 78 9 125 3 47 8 105 10 130 3 25 8 77
12 115 15 166 25 254 29 276 2 11 7 48 10 82 3 34 8 73 10 87 3 14 7 45 10 70
3 25 8 59 11 75 5 31 8 48 19 126 3 26 8 58 11 70 2 13 7 40 10 59 17 106 79
403 109 516 90 339 180 524 295 601 143 97 396 182 765 257 242 50 343 67 485
86 47 6 96 13 110 15 68 11 90 14 150 20 36 4 74 9 85 11 11 2 49 6 85 10 36
3 75 7 87 9 12 2 57 6 100 10 43 3 92 8 108 10 27 3 103 9 260 20 48 3 221 13
368 20 104 5 93 15 -19 16 -54 1 -112 2 -129 4 -16 1 -91 6 -165 10 -74 4
-148 8 -164 10 -16 2 -64 6 -105 10 -109 9 -194 17 -211 20 -8 2 -53 6 -100
10 -93 9 -93 9 -165 18 -27 4 -68 9 -91 12 -95 11 -450 65 -524 80 -26 5 -165
33 -210 41 -88 17 -295 73 -406 109 -298 98 -396 172 -480 360 -89 201 -155
444 -230 848 -9 50 -59 383 -70 462 -2 22 -7 56 -9 75 -9 64 -13 104 -20 165
-3 33 -8 74 -10 90 -2 17 -7 68 -10 115 -4 47 -8 96 -10 109 -2 13 -7 65 -11
115 -3 50 -8 111 -10 136 -2 25 -6 104 -9 175 -10 208 -13 246 -19 252 -3 4
-7 -38 -7 -93z"/>
<path d="M3490 245 c0 -8 2 -15 4 -15 2 0 6 7 10 15 3 8 1 15 -4 15 -6 0 -10
-7 -10 -15z"/>
</g>
</svg>
